<?xml version="1.0" encoding="utf-8"?>
<!-- Generator: Adobe Illustrator 21.0.0, SVG Export Plug-In . SVG Version: 6.00 Build 0)  -->
<svg version="1.1" id="Layer_1" xmlns="http://www.w3.org/2000/svg" xmlns:xlink="http://www.w3.org/1999/xlink" x="0px" y="0px"
	 viewBox="0 0 40 40" style="enable-background:new 0 0 40 40;" xml:space="preserve">
<style type="text/css">
	.st0{fill:#FFFEF8;}
</style>
<path class="st0" d="M16.1,30.5c0.7-1,14.6-21.9,15.6-23.2C32.6,6,35.2,1,35.2,1S21,19.1,19.8,20.8c-1,1.4-9.3,13.6-11.6,16.5
	l2.4,1.7C11.9,37.2,15.5,31.4,16.1,30.5z"/>
<path class="st0" d="M35.3,39.1l2-1.9c-0.1-0.1-0.2-0.1-0.3-0.2C36.5,36.5,22.2,22,21.3,21c-1-1-11.6-11.2-12.6-12.3S4.9,4.7,4.5,5
	C4.2,5.3,24.2,26.7,24.2,26.7S33.3,36.5,35.3,39.1z"/>
</svg>
